<?xml version="1.0" encoding="UTF-8" standalone="no"?>
<!-- Created with Inkscape (http://www.inkscape.org/) -->

<svg
   xmlns:dc="http://purl.org/dc/elements/1.1/"
   xmlns:cc="http://creativecommons.org/ns#"
   xmlns:rdf="http://www.w3.org/1999/02/22-rdf-syntax-ns#"
   xmlns:svg="http://www.w3.org/2000/svg"
   xmlns="http://www.w3.org/2000/svg"
   xmlns:xlink="http://www.w3.org/1999/xlink"
   xmlns:sodipodi="http://sodipodi.sourceforge.net/DTD/sodipodi-0.dtd"
   xmlns:inkscape="http://www.inkscape.org/namespaces/inkscape"
   width="744.09448819"
   height="1052.3622047"
   id="svg4347"
   version="1.1"
   inkscape:version="0.47 r22583"
   sodipodi:docname="logo.svg"
   inkscape:export-filename="/Users/ben/Python/webscard/artwork/logo.png"
   inkscape:export-xdpi="5.1900001"
   inkscape:export-ydpi="5.1900001">
  <defs
     id="defs4349">
    <inkscape:perspective
       sodipodi:type="inkscape:persp3d"
       inkscape:vp_x="0 : 526.18109 : 1"
       inkscape:vp_y="0 : 1000 : 0"
       inkscape:vp_z="744.09448 : 526.18109 : 1"
       inkscape:persp3d-origin="372.04724 : 350.78739 : 1"
       id="perspective4355" />
    <inkscape:perspective
       id="perspective4390"
       inkscape:persp3d-origin="0.5 : 0.33333333 : 1"
       inkscape:vp_z="1 : 0.5 : 1"
       inkscape:vp_y="0 : 1000 : 0"
       inkscape:vp_x="0 : 0.5 : 1"
       sodipodi:type="inkscape:persp3d" />
    <inkscape:perspective
       id="perspective4429"
       inkscape:persp3d-origin="0.5 : 0.33333333 : 1"
       inkscape:vp_z="1 : 0.5 : 1"
       inkscape:vp_y="0 : 1000 : 0"
       inkscape:vp_x="0 : 0.5 : 1"
       sodipodi:type="inkscape:persp3d" />
    <inkscape:perspective
       id="perspective4556"
       inkscape:persp3d-origin="372.04724 : 350.78739 : 1"
       inkscape:vp_z="744.09448 : 526.18109 : 1"
       inkscape:vp_y="0 : 1000 : 0"
       inkscape:vp_x="0 : 526.18109 : 1"
       sodipodi:type="inkscape:persp3d" />
    <inkscape:perspective
       id="perspective4622"
       inkscape:persp3d-origin="372.04724 : 350.78739 : 1"
       inkscape:vp_z="744.09448 : 526.18109 : 1"
       inkscape:vp_y="0 : 1000 : 0"
       inkscape:vp_x="0 : 526.18109 : 1"
       sodipodi:type="inkscape:persp3d" />
  </defs>
  <sodipodi:namedview
     id="base"
     pagecolor="#ffffff"
     bordercolor="#666666"
     borderopacity="1.0"
     inkscape:pageopacity="0.0"
     inkscape:pageshadow="2"
     inkscape:zoom="0.88631392"
     inkscape:cx="371.42858"
     inkscape:cy="698.06976"
     inkscape:document-units="px"
     inkscape:current-layer="layer4"
     showgrid="false"
     inkscape:window-width="1273"
     inkscape:window-height="918"
     inkscape:window-x="164"
     inkscape:window-y="0"
     inkscape:window-maximized="0" />
  <metadata
     id="metadata4352">
    <rdf:RDF>
      <cc:Work
         rdf:about="">
        <dc:format>image/svg+xml</dc:format>
        <dc:type
           rdf:resource="http://purl.org/dc/dcmitype/StillImage" />
        <dc:title></dc:title>
      </cc:Work>
    </rdf:RDF>
  </metadata>
  <g
     inkscape:label="web"
     inkscape:groupmode="layer"
     id="layer1"
     style="display:inline">
    <g
       style="display:inline"
       inkscape:label="drawing"
       id="layer2"
       transform="translate(18.282586,-0.37989571)">
      <path
         sodipodi:nodetypes="ccc"
         id="path4264"
         d="M 68.184836,25.730127 C 113.72487,134.31469 182.71141,207.72951 262.44729,265.02031 l 0,3.85951"
         style="fill:none;stroke:#000000;stroke-width:10;stroke-linecap:butt;stroke-linejoin:miter;stroke-miterlimit:4;stroke-opacity:1;stroke-dasharray:none" />
      <path
         sodipodi:nodetypes="cc"
         id="path4266"
         d="M 262.44729,267.59332 C 383.59747,176.66459 418.46996,91.898556 445.13119,7.719038"
         style="fill:none;stroke:#000000;stroke-width:10;stroke-linecap:butt;stroke-linejoin:miter;stroke-miterlimit:4;stroke-opacity:1;stroke-dasharray:none" />
      <path
         sodipodi:nodetypes="cc"
         id="path4268"
         d="M 272.73934,3.859519 C 247.12045,99.881578 249.60294,186.53651 265.02031,268.87982"
         style="fill:none;stroke:#000000;stroke-width:10;stroke-linecap:butt;stroke-linejoin:miter;stroke-miterlimit:4;stroke-opacity:1;stroke-dasharray:none" />
      <path
         sodipodi:nodetypes="ccc"
         id="path4270"
         d="M 719.15704,135.08317 C 581.44543,204.90275 456.11975,298.72006 266.30681,267.59332 l -1.2865,0"
         style="fill:none;stroke:#000000;stroke-width:10;stroke-linecap:butt;stroke-linejoin:miter;stroke-miterlimit:4;stroke-opacity:1;stroke-dasharray:none" />
      <path
         sodipodi:nodetypes="cc"
         id="path4272"
         d="M 12.865063,414.25504 C 213.06235,394.29697 216.77219,325.21705 261.16079,266.30681"
         style="fill:none;stroke:#000000;stroke-width:10;stroke-linecap:butt;stroke-linejoin:miter;stroke-miterlimit:4;stroke-opacity:1;stroke-dasharray:none" />
      <path
         sodipodi:nodetypes="cccc"
         id="path4274"
         d="M 9.0055444,214.84656 C 47.963189,262.7546 136.89483,277.98733 265.02031,267.59332 l 0,0 0,0"
         style="fill:none;stroke:#000000;stroke-width:10;stroke-linecap:butt;stroke-linejoin:miter;stroke-miterlimit:4;stroke-opacity:1;stroke-dasharray:none" />
      <path
         sodipodi:nodetypes="ccc"
         id="path4276"
         d="M 730.7356,347.35671 C 542.38026,447.4352 397.67522,378.36879 263.7338,267.59332 l 0,0"
         style="fill:none;stroke:#000000;stroke-width:10;stroke-linecap:butt;stroke-linejoin:miter;stroke-miterlimit:4;stroke-opacity:1;stroke-dasharray:none" />
      <path
         sodipodi:nodetypes="cc"
         id="path4278"
         d="M -24.44362,649.6857 C 138.2929,657.18506 313.43223,528.73495 263.7338,267.59332"
         style="fill:none;stroke:#000000;stroke-width:10;stroke-linecap:butt;stroke-linejoin:miter;stroke-miterlimit:4;stroke-opacity:1;stroke-dasharray:none" />
      <path
         sodipodi:nodetypes="ccccccccc"
         id="path4280"
         d="m 306.18851,297.18296 c -22.31729,27.00848 -24.56354,19.34878 -33.44917,23.15712 -14.77633,1.8743 -26.50946,-5.38102 -37.30868,-15.43808 -10.46606,-3.50494 -21.03672,-10.14798 -32.16266,-33.44916 10.47046,-3.50048 6.54639,-29.86287 6.43253,-50.17375 20.68419,1.70394 33.19453,-9.67026 47.60074,-18.01109 17.59337,19.98851 36.41641,21.53195 55.31977,21.87061 1.38535,24.37124 7.90285,40.53102 19.29759,48.88724 -6.78096,13.10627 -14.32784,23.9148 -25.73012,23.15711 z"
         style="fill:none;stroke:#000000;stroke-width:8;stroke-linecap:butt;stroke-linejoin:miter;stroke-miterlimit:4;stroke-opacity:1;stroke-dasharray:none" />
      <path
         sodipodi:nodetypes="ccccccccc"
         id="path4282"
         d="m 358.93527,271.45284 c -6.91832,20.17553 -11.23417,43.34392 -30.87615,48.88724 -13.68696,47.5256 -34.68901,42.21991 -54.03327,48.88724 -22.29441,8.34433 -45.23899,-8.66814 -68.18484,-25.73013 -22.77781,-1.72692 -31.60744,-35.4184 -38.59519,-73.33086 15.00324,-7.94446 14.09108,-45.06715 18.01109,-73.33086 28.70709,1.66913 48.63083,-12.97369 68.18484,-28.30314 34.28002,16.59261 61.81086,24.87855 87.48243,30.87615 3.40578,32.28089 7.38902,62.72439 18.01109,72.04436 z"
         style="fill:none;stroke:#000000;stroke-width:8;stroke-linecap:butt;stroke-linejoin:miter;stroke-miterlimit:4;stroke-opacity:1;stroke-dasharray:none" />
      <path
         sodipodi:nodetypes="ccccccccc"
         id="path4284"
         d="m 379.51937,145.37522 c 11.83192,109.47116 27.30997,109.55858 42.45471,119.64509 -7.84694,59.16922 -21.75021,84.01926 -39.8817,84.90941 -32.24016,45.2378 -72.02129,55.28444 -114.49906,52.74676 -21.38683,10.48502 -45.97228,15.2836 -97.77448,-28.30314 -27.94359,-4.67536 -40.0961,-51.4603 -47.60074,-110.63954 24.94642,-23.96196 17.73379,-70.89466 20.5841,-110.63955 44.42958,7.63994 80.2433,-10.56769 114.49907,-33.44916 40.73937,31.23519 81.47873,23.30554 122.2181,25.73013 z"
         style="fill:none;stroke:#000000;stroke-width:8;stroke-linecap:butt;stroke-linejoin:miter;stroke-miterlimit:4;stroke-opacity:1;stroke-dasharray:none" />
      <path
         sodipodi:nodetypes="ccccccccc"
         id="path4286"
         d="m 501.73747,243.1497 c 1.48455,83.55313 -12.64637,126.11564 -38.59519,137.65618 -45.45593,73.66892 -162.9309,114.99924 -209.70053,90.05544 0,0 -59.49645,21.95465 -147.94823,-70.75785 C 71.26965,387.99623 70.044686,317.22427 65.611823,252.15524 83.554779,234.6882 102.16306,222.37742 106.78003,101.634 c 58.82263,8.43659 108.24059,-20.745532 156.95377,-52.746759 39.22165,38.364964 87.31273,56.773699 140.22919,64.325319 13.2182,66.56033 50.37924,104.38926 97.77448,129.93714 z"
         style="fill:none;stroke:#000000;stroke-width:8;stroke-linecap:butt;stroke-linejoin:miter;stroke-miterlimit:4;stroke-opacity:1;stroke-dasharray:none" />
      <path
         sodipodi:nodetypes="ccccc"
         id="path4288"
         d="m 553.92816,540.29107 c -2.54343,-35.63758 6.56789,-85.13195 0.25109,-143.78918 33.73219,-48.40307 39.959,-129.79155 38.90017,-190.66088 C 525.05598,182.21242 458.44321,155.29226 420.68757,61.03881 372.60647,45.049296 332.19085,50.778645 265.02031,-19.297595"
         style="fill:none;stroke:#000000;stroke-width:8;stroke-linecap:butt;stroke-linejoin:miter;stroke-miterlimit:4;stroke-opacity:1;stroke-dasharray:none" />
    </g>
  </g>
  <g
     inkscape:groupmode="layer"
     id="layer3"
     inkscape:label="chip"
     style="display:inline">
    <use
       x="0"
       y="0"
       xlink:href="#layer1-3"
       id="use2868"
       transform="matrix(0.37071786,0,0,0.37071786,331.20052,445.77659)"
       width="744.09448"
       height="1052.3622" />
    <g
       style="display:inline"
       id="layer1-3"
       inkscape:label="Layer 1"
       transform="matrix(0.13509507,-0.63001655,0.63001655,0.13509507,-25.233919,588.62271)"
       inkscape:export-xdpi="5.1900001"
       inkscape:export-ydpi="5.1900001">
      <rect
         rx="60.836185"
         ry="66.318298"
         y="804.86218"
         x="102.39407"
         height="145"
         width="209.92769"
         id="rect3600"
         style="fill:#e2b824;fill-opacity:1;fill-rule:nonzero;stroke:#000000;stroke-width:6.58681822;stroke-linecap:square;stroke-linejoin:miter;stroke-miterlimit:26;stroke-opacity:1;stroke-dasharray:none" />
      <path
         id="path4122"
         d="m 101.75999,878.36218 211.1961,0"
         style="fill:none;stroke:#000000;stroke-width:6.58681822;stroke-linecap:butt;stroke-linejoin:miter;stroke-miterlimit:4;stroke-opacity:1;stroke-dasharray:none" />
      <path
         id="path4127"
         d="m 207.35791,803.94175 0,146.84087"
         style="fill:none;stroke:#000000;stroke-width:6.58681822;stroke-linecap:butt;stroke-linejoin:miter;stroke-miterlimit:4;stroke-opacity:1;stroke-dasharray:none" />
      <path
         sodipodi:open="true"
         sodipodi:end="11.064241"
         sodipodi:start="5.3783107"
         transform="matrix(0.87335295,0,0,1.1716771,-104.0057,363.15959)"
         d="m 380.08665,418.58623 c 16.16042,9.57786 18.9687,27.22516 6.27247,39.41636 -12.69624,12.19119 -36.08918,14.30972 -52.2496,4.73186 -16.16042,-9.57786 -18.9687,-27.22516 -6.27247,-39.41636 7.61098,-7.30823 19.52343,-11.30097 31.8142,-10.66329"
         sodipodi:ry="28.071695"
         sodipodi:rx="37.211319"
         sodipodi:cy="440.66034"
         sodipodi:cx="357.09808"
         id="path4114"
         style="fill:#e2b824;fill-opacity:1;stroke:#000000;stroke-width:6.51143646;stroke-linejoin:round;stroke-miterlimit:26;stroke-opacity:1;stroke-dasharray:none"
         sodipodi:type="arc" />
      <path
         sodipodi:nodetypes="ccc"
         id="path4131"
         d="m 232.55955,899.93737 16.05023,15.73985 55.57192,-0.31504"
         style="fill:none;stroke:#000000;stroke-width:6.58681822;stroke-linecap:butt;stroke-linejoin:miter;stroke-miterlimit:4;stroke-opacity:1;stroke-dasharray:none" />
      <use
         height="1052.3622"
         width="744.09448"
         transform="matrix(-1,0,0,1,412.14527,-2)"
         id="use4160"
         xlink:href="#path4131"
         y="0"
         x="0" />
      <use
         height="1"
         width="1"
         transform="matrix(1.039574,0,0,-1,-13.098616,1753.7244)"
         id="use4162"
         xlink:href="#path4131"
         y="0"
         x="0" />
      <use
         height="1052.3622"
         width="744.09448"
         transform="matrix(-1,0,0,-1,415.57266,1755.7244)"
         id="use4164"
         xlink:href="#path4131"
         y="0"
         x="0" />
    </g>
    <path
       style="fill:none;stroke:#000000;stroke-width:4;stroke-linecap:butt;stroke-linejoin:miter;stroke-opacity:1;stroke-miterlimit:4;stroke-dasharray:none"
       d="m 594.93425,519.17621 17.34502,-23.93613 -36.13912,-42.80582"
       id="path2852"
       sodipodi:nodetypes="ccc" />
    <path
       style="fill:none;stroke:#000000;stroke-width:4;stroke-linecap:butt;stroke-linejoin:miter;stroke-opacity:1;stroke-miterlimit:4;stroke-dasharray:none"
       d="M 543.59298,511.1975 533.18597,485.52687 571.7534,435.78586"
       id="path2854"
       sodipodi:nodetypes="ccc" />
    <path
       style="fill:none;stroke:#000000;stroke-width:4;stroke-linecap:butt;stroke-linejoin:miter;stroke-opacity:1;stroke-miterlimit:4;stroke-dasharray:none"
       d="m 608.11647,549.70345 31.91484,-22.20163 -62.29655,-108.1517"
       id="path2856"
       sodipodi:nodetypes="ccc" />
    <path
       style="fill:none;stroke:#000000;stroke-width:4;stroke-linecap:butt;stroke-linejoin:miter;stroke-opacity:1;stroke-miterlimit:4;stroke-dasharray:none"
       d="m 513.06575,534.43983 -16.30432,-58.62617 72.28389,-68.66372"
       id="path2858"
       sodipodi:nodetypes="ccc" />
    <path
       style="fill:none;stroke:#000000;stroke-width:4;stroke-linecap:butt;stroke-linejoin:miter;stroke-opacity:1;stroke-miterlimit:4;stroke-dasharray:none"
       d="m 506.12491,584.87746 -53.96529,12.55272 4.21018,86.12886"
       id="path2860"
       sodipodi:nodetypes="ccc" />
    <path
       style="fill:none;stroke:#000000;stroke-width:4;stroke-linecap:butt;stroke-linejoin:miter;stroke-opacity:1;stroke-miterlimit:4;stroke-dasharray:none"
       d="m 598.75015,606.24822 36.69586,25.38521 -10.73134,68.24404"
       id="path2862"
       sodipodi:nodetypes="ccc" />
    <path
       style="fill:none;stroke:#000000;stroke-width:4;stroke-linecap:butt;stroke-linejoin:miter;stroke-opacity:1;stroke-miterlimit:4;stroke-dasharray:none"
       d="m 505.43394,619.77734 -21.09945,18.74108 7.69329,32.46876"
       id="path2864"
       sodipodi:nodetypes="ccc" />
    <path
       style="fill:none;stroke:#000000;stroke-width:4;stroke-linecap:butt;stroke-linejoin:miter;stroke-opacity:1;stroke-miterlimit:4;stroke-dasharray:none"
       d="m 577.93613,639.55066 13.87601,21.85473 -23.37374,25.95605"
       id="path2866"
       sodipodi:nodetypes="ccc" />
  </g>
  <g
     inkscape:groupmode="layer"
     id="layer4"
     inkscape:label="frame"
     style="display:none">
    <rect
       style="fill:none;stroke:#000000;stroke-width:15;stroke-linecap:square;stroke-miterlimit:4;stroke-opacity:1;stroke-dasharray:none"
       id="rect4655"
       width="592.38776"
       height="592.38788"
       x="117.79612"
       y="132.37447"
       ry="0"
       inkscape:export-xdpi="96.017723"
       inkscape:export-ydpi="96.017723"
       inkscape:export-filename="/Users/ben/Python/webscard/artwork/webscard-big.png" />
  </g>
</svg>
